<?xml version="1.0" standalone="no"?>
<!DOCTYPE svg PUBLIC "-//W3C//DTD SVG 20010904//EN"
 "http://www.w3.org/TR/2001/REC-SVG-20010904/DTD/svg10.dtd">
<svg version="1.0" xmlns="http://www.w3.org/2000/svg"
 width="1000.000000pt" height="1000.000000pt" viewBox="0 0 1000.000000 1000.000000"
 preserveAspectRatio="xMidYMid meet">
<metadata>
Created by potrace 1.11, written by Peter Selinger 2001-2013
</metadata>
<g transform="translate(0.000000,1000.000000) scale(0.100000,-0.100000)"
fill="#000000" stroke="none">
<path d="M4893 9799 c-13 -4 -23 -6 -23 -2 0 3 -7 0 -15 -7 -8 -7 -15 -10 -15
-6 0 4 -13 0 -30 -9 -16 -8 -33 -15 -37 -15 -57 0 -179 -99 -299 -245 -27 -32
-56 -66 -64 -75 -8 -9 -30 -35 -48 -57 -35 -44 -55 -67 -100 -118 -23 -26 -90
-105 -144 -170 -68 -82 -232 -276 -263 -311 -21 -24 -23 -26 -95 -114 -25 -30
-47 -57 -51 -60 -12 -11 -197 -238 -224 -275 -16 -22 -32 -42 -35 -45 -3 -3
-25 -36 -50 -75 -25 -38 -47 -72 -50 -75 -5 -5 -15 -21 -58 -99 -13 -25 -34
-59 -46 -76 -11 -16 -20 -31 -18 -33 1 -1 -10 -26 -25 -55 -15 -28 -27 -54
-28 -57 0 -3 -10 -25 -22 -50 -49 -102 -160 -420 -147 -420 3 0 -2 -13 -11
-30 -8 -16 -15 -32 -14 -35 2 -10 -12 -90 -21 -120 -5 -16 -11 -48 -14 -70 -3
-22 -11 -74 -16 -115 -33 -231 -30 -565 6 -790 10 -61 24 -156 30 -196 4 -32
14 -96 19 -124 2 -14 7 -42 10 -62 3 -21 8 -55 12 -75 3 -21 6 -48 7 -60 0
-13 2 -23 6 -23 3 0 5 -12 6 -27 1 -16 4 -46 7 -68 3 -22 9 -60 12 -85 4 -25
9 -56 11 -70 3 -14 7 -41 9 -60 5 -38 24 -159 31 -200 2 -14 7 -45 9 -70 3
-25 8 -56 11 -70 4 -14 8 -38 10 -55 1 -16 5 -43 7 -60 3 -16 17 -106 31 -200
35 -223 35 -226 40 -255 5 -29 17 -112 22 -153 2 -15 6 -39 9 -55 3 -15 8 -47
11 -72 2 -25 7 -56 10 -70 3 -14 7 -37 7 -53 1 -15 6 -27 10 -27 5 0 5 -4 2
-10 -3 -5 -1 -38 6 -72 6 -35 13 -74 15 -88 1 -14 6 -45 9 -70 4 -25 9 -61 11
-80 3 -19 7 -42 9 -50 2 -8 6 -33 9 -55 7 -52 24 -164 36 -240 6 -33 13 -82
16 -110 3 -27 9 -68 14 -90 4 -22 8 -47 8 -55 1 -18 11 -82 21 -130 l7 -35
209 -2 c116 0 216 -2 223 -2 8 -1 11 -10 8 -26 -3 -13 0 -27 5 -31 5 -3 6 -10
2 -17 -7 -11 -6 -66 2 -106 2 -11 0 -23 -5 -26 -12 -8 10 -75 37 -113 30 -40
75 -64 133 -69 88 -8 670 -8 670 0 0 5 5 5 12 1 15 -10 411 -10 426 0 7 4 12
4 12 -1 0 -10 143 -8 159 1 6 4 11 4 11 -1 0 -4 40 -8 90 -8 49 0 90 4 90 8 0
5 6 5 12 1 12 -8 414 -8 450 -1 56 11 126 78 136 131 3 11 5 74 5 139 1 110 2
117 22 118 11 1 113 1 228 1 114 0 207 3 208 7 5 39 10 72 16 101 3 19 7 42 8
50 2 19 18 123 20 130 1 3 5 32 9 65 4 32 10 68 12 80 4 18 9 54 19 130 2 17
8 59 14 95 6 36 13 83 16 105 2 22 7 51 9 65 3 14 8 48 11 75 4 28 9 61 11 75
3 14 6 39 8 55 2 17 6 44 9 60 3 17 8 50 12 75 4 25 9 59 11 75 3 17 7 44 8
60 2 17 6 44 9 60 3 17 9 50 12 75 3 25 7 54 9 65 2 11 7 43 10 70 4 28 9 57
11 65 2 8 6 38 10 65 8 67 22 159 30 205 5 28 13 87 20 140 3 19 7 46 10 60 3
14 7 49 11 78 3 29 7 63 10 75 2 12 7 40 10 62 3 22 9 65 14 95 5 30 12 78 15
105 4 28 9 64 12 80 2 17 6 44 9 60 2 17 6 44 9 60 19 106 28 171 29 212 1 18
3 33 6 33 3 0 6 8 6 18 1 16 10 88 19 142 9 57 14 89 25 165 6 44 13 91 15
105 25 159 25 516 0 690 -3 19 -7 51 -10 70 -10 76 -65 315 -84 363 -6 15 -8
27 -5 27 4 0 0 7 -7 17 -8 9 -12 18 -10 20 1 2 -2 16 -7 31 -6 15 -25 65 -42
112 -50 135 -194 422 -232 464 -10 11 -18 24 -18 29 0 5 -36 59 -79 121 -71
99 -120 161 -251 316 -164 194 -407 482 -437 516 -10 12 -34 41 -53 64 -19 23
-43 52 -53 64 -11 11 -35 41 -55 65 -21 24 -45 53 -55 65 -108 126 -122 143
-170 201 -155 184 -291 256 -497 261 -58 1 -115 -2 -127 -7z m251 -1883 c150
-19 319 -90 440 -186 69 -53 196 -198 196 -222 0 -5 6 -16 14 -24 18 -18 53
-109 74 -196 29 -114 13 -349 -26 -413 -4 -5 -7 -16 -8 -23 -2 -7 -22 -47 -46
-89 -41 -72 -161 -207 -233 -260 -62 -47 -218 -120 -295 -138 -102 -25 -160
-31 -265 -29 -66 1 -136 5 -155 8 -47 7 -173 46 -184 57 -6 5 -17 9 -25 10
-20 0 -148 74 -198 114 -75 59 -167 161 -184 203 -4 12 -13 22 -19 22 -5 0
-10 8 -10 17 0 9 -6 24 -13 32 -8 9 -26 54 -41 100 -83 256 -29 510 154 727
55 65 237 202 280 210 3 0 23 9 45 19 22 9 45 18 50 19 6 1 26 7 45 14 43 14
82 22 139 27 24 3 45 6 47 7 5 5 168 1 218 -6z"/>
<path d="M2580 5361 c-89 -24 -93 -25 -151 -46 -20 -8 -39 -11 -43 -8 -3 4 -6
1 -6 -5 0 -7 -3 -12 -7 -11 -28 4 -222 -91 -336 -163 -45 -29 -84 -55 -87 -58
-3 -3 -21 -17 -40 -30 -95 -66 -283 -257 -350 -355 -49 -73 -74 -112 -97 -153
-15 -26 -34 -62 -45 -80 -10 -17 -18 -34 -18 -37 0 -3 -10 -26 -21 -52 -44
-102 -76 -211 -94 -316 -3 -17 -8 -45 -11 -62 -12 -62 -14 -194 -15 -715 -1
-384 2 -543 11 -565 34 -90 140 -134 260 -110 14 2 36 7 50 10 14 3 41 7 60 9
34 5 67 11 120 21 41 9 73 14 115 20 46 7 55 8 150 25 39 7 81 14 95 15 14 2
26 4 28 5 3 4 12 5 72 14 30 4 62 9 70 11 21 5 161 27 185 30 11 1 20 3 20 4
0 3 31 9 85 16 25 3 52 8 60 10 8 3 31 7 50 9 19 3 51 8 70 11 19 4 44 8 55
10 88 14 145 25 165 30 8 2 23 4 33 4 19 1 19 28 3 111 -2 14 -7 45 -10 70 -4
25 -8 59 -11 75 -3 17 -7 44 -10 60 -3 17 -7 51 -10 76 -3 26 -8 58 -11 70 -2
13 -7 39 -9 57 -3 17 -8 49 -11 70 -3 20 -7 53 -10 72 -2 19 -9 60 -14 90 -5
30 -12 73 -15 95 -7 55 -17 126 -21 150 -3 11 -7 36 -9 55 -14 95 -27 177 -32
200 -2 14 -5 32 -5 40 0 8 -4 35 -8 60 -5 25 -11 69 -15 99 -4 30 -9 63 -11
75 -2 11 -6 38 -9 61 -4 22 -8 54 -11 70 -6 33 -13 81 -19 135 -2 19 -6 46 -9
60 -3 14 -8 43 -11 65 -6 40 -9 60 -20 138 -3 23 -8 53 -10 67 -3 14 -8 43
-10 65 -3 22 -10 67 -15 100 -5 33 -13 87 -18 120 -5 33 -8 63 -6 67 3 4 0 9
-5 13 -6 3 -8 12 -5 19 9 23 -8 25 -76 7z"/>
<path d="M7375 5371 c-4 -8 -10 -39 -20 -111 -3 -25 -8 -56 -10 -70 -18 -108
-46 -297 -50 -332 -3 -24 -8 -55 -11 -70 -3 -15 -7 -42 -9 -60 -4 -30 -22
-149 -31 -208 -2 -14 -6 -40 -9 -59 -2 -19 -7 -48 -9 -65 -3 -17 -8 -49 -11
-71 -4 -22 -9 -53 -12 -70 -3 -16 -6 -41 -8 -55 -5 -43 -16 -114 -20 -130 -2
-8 -6 -35 -9 -60 -3 -25 -7 -54 -10 -65 -2 -11 -7 -47 -11 -80 -3 -32 -8 -62
-11 -66 -2 -4 -6 -31 -9 -60 -3 -30 -10 -79 -15 -109 -12 -69 -17 -103 -24
-160 -3 -25 -8 -54 -10 -65 -7 -33 -27 -172 -29 -194 -1 -12 -4 -21 -7 -21 -3
0 -6 -17 -6 -38 -1 -20 -4 -55 -8 -77 -4 -22 -9 -58 -11 -80 -6 -47 -12 -79
-20 -106 -7 -22 14 -33 80 -43 40 -6 69 -11 135 -22 19 -4 45 -8 58 -10 12 -2
32 -6 45 -8 12 -2 40 -7 62 -11 22 -4 74 -13 115 -21 41 -8 89 -17 105 -19 17
-3 46 -8 65 -12 19 -4 43 -7 53 -8 9 -2 18 -3 20 -5 1 -1 11 -3 22 -5 40 -6
123 -20 180 -29 11 -2 61 -11 110 -20 50 -9 105 -19 124 -22 18 -3 43 -8 55
-10 57 -11 144 -26 171 -30 17 -2 64 -10 105 -17 123 -22 213 13 250 97 18 40
19 73 16 637 -3 498 -6 608 -20 683 -9 49 -21 95 -26 101 -5 7 -7 14 -4 18 10
9 -67 218 -119 322 -45 90 -132 229 -165 263 -7 8 -25 30 -40 50 -46 61 -254
262 -270 262 -4 0 -18 10 -32 23 -14 13 -40 32 -57 42 -18 11 -33 23 -33 27 0
4 -5 8 -11 8 -6 0 -47 22 -92 48 -115 67 -294 143 -407 172 -19 5 -52 13 -73
18 -20 6 -39 7 -42 3z"/>
<path d="M5476 2185 c2 -13 8 -35 13 -47 13 -36 5 -178 -14 -233 -28 -82 -81
-168 -140 -231 -11 -12 -36 -40 -55 -64 -19 -23 -44 -52 -55 -64 -11 -12 -45
-51 -75 -86 -141 -164 -147 -169 -176 -125 -9 14 -31 40 -48 58 -17 18 -54 59
-81 92 -28 32 -60 70 -72 83 -13 12 -23 25 -23 27 0 2 -10 15 -22 28 -43 46
-64 72 -89 107 -13 19 -27 37 -31 40 -15 11 -56 108 -68 159 -14 59 -9 196 9
228 5 11 8 23 5 26 -6 6 -95 -24 -104 -34 -3 -4 -25 -16 -49 -29 -25 -12 -51
-29 -59 -36 -7 -8 -16 -14 -20 -14 -11 0 -114 -101 -154 -150 -68 -84 -148
-270 -144 -332 1 -16 -1 -28 -4 -28 -5 0 -5 -121 1 -180 7 -84 89 -292 129
-330 3 -3 16 -18 29 -35 22 -30 131 -150 245 -273 33 -35 72 -78 87 -95 15
-18 45 -50 66 -73 21 -22 81 -87 133 -144 150 -163 186 -197 225 -210 38 -13
102 -8 138 11 24 13 107 96 225 227 77 85 106 116 206 223 33 36 106 115 161
174 55 60 108 117 118 127 9 10 17 20 17 23 0 3 12 18 28 33 42 44 109 163
131 237 7 22 15 47 18 55 10 26 14 62 16 145 5 148 -28 274 -106 400 -78 125
-208 241 -342 304 -36 17 -67 31 -69 31 -3 0 -3 -11 0 -25z"/>
</g>
</svg>
